<svg width="163" height="19" viewBox="0 0 163 19" fill="none" xmlns="http://www.w3.org/2000/svg">
<path d="M0.256 18V1.2H8.128C10.144 1.2 11.68 1.6 12.736 2.4C13.792 3.184 14.32 4.24 14.32 5.568C14.32 6.464 14.112 7.232 13.696 7.872C13.28 8.496 12.72 8.984 12.016 9.336C11.328 9.672 10.576 9.84 9.76 9.84L10.192 8.976C11.136 8.976 11.984 9.152 12.736 9.504C13.488 9.84 14.08 10.336 14.512 10.992C14.96 11.648 15.184 12.464 15.184 13.44C15.184 14.88 14.632 16 13.528 16.8C12.424 17.6 10.784 18 8.608 18H0.256ZM3.376 15.552H8.416C9.584 15.552 10.48 15.36 11.104 14.976C11.728 14.592 12.04 13.976 12.04 13.128C12.04 12.296 11.728 11.688 11.104 11.304C10.48 10.904 9.584 10.704 8.416 10.704H3.136V8.28H7.792C8.88 8.28 9.712 8.088 10.288 7.704C10.88 7.32 11.176 6.744 11.176 5.976C11.176 5.192 10.88 4.608 10.288 4.224C9.712 3.84 8.88 3.648 7.792 3.648H3.376V15.552ZM26.1218 18V15.408L25.9538 14.856V10.32C25.9538 9.44 25.6898 8.76 25.1618 8.28C24.6338 7.784 23.8338 7.536 22.7618 7.536C22.0418 7.536 21.3298 7.648 20.6258 7.872C19.9378 8.096 19.3538 8.408 18.8738 8.808L17.6978 6.624C18.3858 6.096 19.2018 5.704 20.1458 5.448C21.1058 5.176 22.0978 5.04 23.1218 5.04C24.9778 5.04 26.4098 5.488 27.4178 6.384C28.4418 7.264 28.9538 8.632 28.9538 10.488V18H26.1218ZM22.0898 18.168C21.1298 18.168 20.2898 18.008 19.5698 17.688C18.8498 17.352 18.2898 16.896 17.8898 16.32C17.5058 15.728 17.3138 15.064 17.3138 14.328C17.3138 13.608 17.4818 12.96 17.8178 12.384C18.1698 11.808 18.7378 11.352 19.5218 11.016C20.3058 10.68 21.3458 10.512 22.6418 10.512H26.3618V12.504H22.8578C21.8338 12.504 21.1458 12.672 20.7938 13.008C20.4418 13.328 20.2658 13.728 20.2658 14.208C20.2658 14.752 20.4818 15.184 20.9138 15.504C21.3458 15.824 21.9458 15.984 22.7138 15.984C23.4498 15.984 24.1058 15.816 24.6818 15.48C25.2738 15.144 25.6978 14.648 25.9538 13.992L26.4578 15.792C26.1698 16.544 25.6498 17.128 24.8978 17.544C24.1618 17.96 23.2258 18.168 22.0898 18.168ZM32.8039 18V5.184H35.6599V8.712L35.3239 7.68C35.7079 6.816 36.3079 6.16 37.1239 5.712C37.9559 5.264 38.9879 5.04 40.2199 5.04V7.896C40.0919 7.864 39.9719 7.848 39.8599 7.848C39.7479 7.832 39.6359 7.824 39.5239 7.824C38.3879 7.824 37.4839 8.16 36.8119 8.832C36.1399 9.488 35.8039 10.472 35.8039 11.784V18H32.8039ZM55.5389 18.168C54.1149 18.168 52.8669 17.888 51.7949 17.328C50.7389 16.752 49.9149 15.968 49.3229 14.976C48.7469 13.984 48.4589 12.856 48.4589 11.592C48.4589 10.312 48.7389 9.184 49.2989 8.208C49.8749 7.216 50.6589 6.44 51.6509 5.88C52.6589 5.32 53.8029 5.04 55.0829 5.04C56.3309 5.04 57.4429 5.312 58.4189 5.856C59.3949 6.4 60.1629 7.168 60.7229 8.16C61.2829 9.152 61.5629 10.32 61.5629 11.664C61.5629 11.792 61.5549 11.936 61.5389 12.096C61.5389 12.256 61.5309 12.408 61.5149 12.552H50.8349V10.56H59.9309L58.7549 11.184C58.7709 10.448 58.6189 9.8 58.2989 9.24C57.9789 8.68 57.5389 8.24 56.9789 7.92C56.4349 7.6 55.8029 7.44 55.0829 7.44C54.3469 7.44 53.6989 7.6 53.1389 7.92C52.5949 8.24 52.1629 8.688 51.8429 9.264C51.5389 9.824 51.3869 10.488 51.3869 11.256V11.736C51.3869 12.504 51.5629 13.184 51.9149 13.776C52.2669 14.368 52.7629 14.824 53.4029 15.144C54.0429 15.464 54.7789 15.624 55.6109 15.624C56.3309 15.624 56.9789 15.512 57.5549 15.288C58.1309 15.064 58.6429 14.712 59.0909 14.232L60.6989 16.08C60.1229 16.752 59.3949 17.272 58.5149 17.64C57.6509 17.992 56.6589 18.168 55.5389 18.168ZM64.4446 18V0.191999H67.4446V18H64.4446Z" fill="black"/>
<path d="M86.0789 18.24C84.7989 18.24 83.6069 18.032 82.5029 17.616C81.4149 17.184 80.4629 16.584 79.6469 15.816C78.8469 15.032 78.2229 14.112 77.7749 13.056C77.3269 12 77.1029 10.848 77.1029 9.6C77.1029 8.352 77.3269 7.2 77.7749 6.144C78.2229 5.088 78.8549 4.176 79.6709 3.408C80.4869 2.624 81.4389 2.024 82.5269 1.608C83.6149 1.176 84.8069 0.959999 86.1029 0.959999C87.4789 0.959999 88.7349 1.2 89.8709 1.68C91.0069 2.144 91.9669 2.84 92.7509 3.768L90.7349 5.664C90.1269 5.008 89.4469 4.52 88.6949 4.2C87.9429 3.864 87.1269 3.696 86.2469 3.696C85.3669 3.696 84.5589 3.84 83.8229 4.128C83.1029 4.416 82.4709 4.824 81.9269 5.352C81.3989 5.88 80.9829 6.504 80.6789 7.224C80.3909 7.944 80.2469 8.736 80.2469 9.6C80.2469 10.464 80.3909 11.256 80.6789 11.976C80.9829 12.696 81.3989 13.32 81.9269 13.848C82.4709 14.376 83.1029 14.784 83.8229 15.072C84.5589 15.36 85.3669 15.504 86.2469 15.504C87.1269 15.504 87.9429 15.344 88.6949 15.024C89.4469 14.688 90.1269 14.184 90.7349 13.512L92.7509 15.432C91.9669 16.344 91.0069 17.04 89.8709 17.52C88.7349 18 87.4709 18.24 86.0789 18.24ZM102.724 5.04C103.748 5.04 104.66 5.24 105.46 5.64C106.276 6.04 106.916 6.656 107.38 7.488C107.844 8.304 108.076 9.36 108.076 10.656V18H105.076V11.04C105.076 9.904 104.804 9.056 104.26 8.496C103.732 7.936 102.988 7.656 102.028 7.656C101.324 7.656 100.7 7.8 100.156 8.088C99.6124 8.376 99.1884 8.808 98.8844 9.384C98.5964 9.944 98.4524 10.656 98.4524 11.52V18H95.4524V0.191999H98.4524V8.64L97.8044 7.584C98.2524 6.768 98.9004 6.144 99.7484 5.712C100.612 5.264 101.604 5.04 102.724 5.04ZM117.93 18.168C116.506 18.168 115.258 17.888 114.186 17.328C113.13 16.752 112.306 15.968 111.714 14.976C111.138 13.984 110.85 12.856 110.85 11.592C110.85 10.312 111.13 9.184 111.69 8.208C112.266 7.216 113.05 6.44 114.042 5.88C115.05 5.32 116.194 5.04 117.474 5.04C118.722 5.04 119.834 5.312 120.81 5.856C121.786 6.4 122.554 7.168 123.114 8.16C123.674 9.152 123.954 10.32 123.954 11.664C123.954 11.792 123.946 11.936 123.93 12.096C123.93 12.256 123.922 12.408 123.906 12.552H113.226V10.56H122.322L121.146 11.184C121.162 10.448 121.01 9.8 120.69 9.24C120.37 8.68 119.93 8.24 119.37 7.92C118.826 7.6 118.194 7.44 117.474 7.44C116.738 7.44 116.09 7.6 115.53 7.92C114.986 8.24 114.554 8.688 114.234 9.264C113.93 9.824 113.778 10.488 113.778 11.256V11.736C113.778 12.504 113.954 13.184 114.306 13.776C114.658 14.368 115.154 14.824 115.794 15.144C116.434 15.464 117.17 15.624 118.002 15.624C118.722 15.624 119.37 15.512 119.946 15.288C120.522 15.064 121.034 14.712 121.482 14.232L123.09 16.08C122.514 16.752 121.786 17.272 120.906 17.64C120.042 17.992 119.05 18.168 117.93 18.168ZM143.011 5.04C144.035 5.04 144.939 5.24 145.723 5.64C146.523 6.04 147.147 6.656 147.595 7.488C148.043 8.304 148.267 9.36 148.267 10.656V18H145.267V11.04C145.267 9.904 145.019 9.056 144.523 8.496C144.027 7.936 143.315 7.656 142.387 7.656C141.731 7.656 141.147 7.8 140.635 8.088C140.139 8.376 139.747 8.8 139.459 9.36C139.187 9.92 139.051 10.632 139.051 11.496V18H136.051V11.04C136.051 9.904 135.803 9.056 135.307 8.496C134.811 7.936 134.099 7.656 133.171 7.656C132.515 7.656 131.931 7.8 131.419 8.088C130.923 8.376 130.531 8.8 130.243 9.36C129.971 9.92 129.835 10.632 129.835 11.496V18H126.835V5.184H129.691V8.592L129.187 7.584C129.619 6.752 130.243 6.12 131.059 5.688C131.891 5.256 132.835 5.04 133.891 5.04C135.091 5.04 136.131 5.336 137.011 5.928C137.907 6.52 138.499 7.416 138.787 8.616L137.611 8.208C138.027 7.248 138.715 6.48 139.675 5.904C140.635 5.328 141.747 5.04 143.011 5.04ZM159.997 18V15.408L159.829 14.856V10.32C159.829 9.44 159.565 8.76 159.037 8.28C158.509 7.784 157.709 7.536 156.637 7.536C155.917 7.536 155.205 7.648 154.501 7.872C153.813 8.096 153.229 8.408 152.749 8.808L151.573 6.624C152.261 6.096 153.077 5.704 154.021 5.448C154.981 5.176 155.973 5.04 156.997 5.04C158.853 5.04 160.285 5.488 161.293 6.384C162.317 7.264 162.829 8.632 162.829 10.488V18H159.997ZM155.965 18.168C155.005 18.168 154.165 18.008 153.445 17.688C152.725 17.352 152.165 16.896 151.765 16.32C151.381 15.728 151.189 15.064 151.189 14.328C151.189 13.608 151.357 12.96 151.693 12.384C152.045 11.808 152.613 11.352 153.397 11.016C154.181 10.68 155.221 10.512 156.517 10.512H160.237V12.504H156.733C155.709 12.504 155.021 12.672 154.669 13.008C154.317 13.328 154.141 13.728 154.141 14.208C154.141 14.752 154.357 15.184 154.789 15.504C155.221 15.824 155.821 15.984 156.589 15.984C157.325 15.984 157.981 15.816 158.557 15.48C159.149 15.144 159.573 14.648 159.829 13.992L160.333 15.792C160.045 16.544 159.525 17.128 158.773 17.544C158.037 17.96 157.101 18.168 155.965 18.168Z" fill="#F48242"/>
</svg>
